<svg width="304" height="352" viewBox="0 0 304 352" fill="none" xmlns="http://www.w3.org/2000/svg">
<path d="M210.196 291.015C190.897 302.932 168.663 309.244 145.981 309.244C123.299 309.244 101.065 302.932 81.766 291.015C59.1691 277.044 41.7446 256.086 32.1351 231.318C22.5256 206.55 21.2555 179.324 28.5172 153.769C35.7789 128.214 51.1764 105.724 72.3744 89.7109C93.5724 73.6974 119.414 65.0336 145.981 65.0336C172.548 65.0336 198.39 73.6974 219.588 89.7109C240.786 105.724 256.183 128.214 263.445 153.769C270.707 179.324 269.436 206.55 259.827 231.318C250.217 256.086 232.793 277.044 210.196 291.015V291.015Z" fill="#A6A6A6"/>
<path d="M141.043 158.944C186.341 185.595 245.638 202.894 260.361 193.581C275.085 184.268 298.579 108.98 296.728 91.0981C295.964 83.3742 243.485 79.2507 238.256 85.6672C233.026 92.0837 227.434 137.743 224.598 141.987C222.587 145.045 176.223 137.663 147.218 134.746C128.713 132.855 117.147 144.884 141.043 158.944Z" fill="#FFBE9D"/>
<path d="M296.145 101.296C297.935 93.5721 304.191 53.625 303.306 43.2661C302.421 32.9072 297.895 3.27879 289.909 3.03742C281.924 2.79604 282.548 11.6464 282.548 11.6464C282.548 11.6464 278.645 -0.563054 270.579 0.0202626C262.514 0.603579 263.962 14.1003 263.962 14.1003C263.962 14.1003 259.034 1.87079 251.028 2.99719C243.023 4.1236 246.784 17.6002 246.784 17.6002C246.784 17.6002 242.761 6.19537 236.606 9.91652C229.144 14.3819 238.859 34.5767 238.94 46.1224C238.94 48.7372 235.46 99.0835 235.46 99.0835L296.145 101.296Z" fill="#FFBE9D"/>
<path d="M246.583 16.6347C253.703 31.4992 254.246 39.2232 252.356 55.3348C252.356 55.6566 252.778 55.7773 252.838 55.4554C256.137 39.8467 256.861 30.051 247.287 16.2526C246.724 15.5687 246.14 15.9106 246.583 16.6347Z" fill="#263238"/>
<path d="M263.379 13.175C269.413 29.2665 270.077 37.6542 269.413 54.671C269.413 54.7296 269.436 54.7859 269.478 54.8274C269.519 54.8689 269.576 54.8922 269.634 54.8922C269.693 54.8922 269.749 54.8689 269.791 54.8274C269.832 54.7859 269.855 54.7296 269.855 54.671C271.967 38.0364 272.47 28.2407 264.324 12.9538C263.861 12.2498 263.097 12.3906 263.379 13.175Z" fill="#263238"/>
<path d="M282.487 12.5917C287.214 28.6832 288.34 37.7548 285.484 54.1882C285.465 54.2682 285.479 54.3524 285.523 54.4222C285.566 54.492 285.635 54.5417 285.715 54.5603C285.795 54.579 285.88 54.5651 285.949 54.5217C286.019 54.4784 286.069 54.409 286.088 54.329C290.613 37.8554 289.306 26.4103 282.99 12.5113C282.567 11.5458 282.185 11.586 282.487 12.5917Z" fill="#263238"/>
<path d="M234.072 109.503C234.072 109.503 221.862 92.8481 218.121 84.3397C214.38 75.8313 212.087 39.022 219.992 38.0766C230.23 36.8497 235.741 57.829 237.089 68.4695C237.089 68.4695 260.764 65.6132 267.985 79.8341C275.206 94.0549 234.072 109.503 234.072 109.503Z" fill="#FFBE9D"/>
<path d="M222.908 38.6599C232.966 44.2718 233.931 58.3519 236.023 68.57C236.049 68.7205 236.111 68.8626 236.203 68.9846C236.295 69.1066 236.415 69.2051 236.552 69.2719C236.69 69.3386 236.841 69.3718 236.994 69.3687C237.146 69.3655 237.296 69.3262 237.431 69.2539C247.488 68.7108 261.689 70.863 268.186 79.3111C268.223 79.357 268.277 79.3874 268.335 79.3965C268.394 79.4056 268.454 79.3928 268.504 79.3604C268.554 79.328 268.59 79.2784 268.605 79.221C268.621 79.1637 268.615 79.1026 268.588 79.0496C262.835 69.1533 248.997 65.8948 238.095 67.1821C236.083 56.6623 234.595 42.5822 222.969 38.6599C222.888 38.5392 222.848 38.6197 222.908 38.6599Z" fill="#263238"/>
<path d="M211.182 199.132L223.552 138.789C223.552 138.789 176.444 131.005 147.54 131.468C118.636 131.93 109.081 143.074 145.367 164.757C166.588 177.539 188.567 189.019 211.182 199.132Z" fill="#455A64"/>
<path d="M211.866 139.714C209.425 148.015 207.199 156.383 205.188 164.817C204.202 168.961 203.176 173.104 202.231 177.288C201.286 181.472 200.642 185.977 199.676 190.282C199.676 190.584 200.079 190.724 200.159 190.423C201.225 186.299 202.573 182.236 203.679 178.113C204.785 173.989 205.691 169.564 206.797 165.3C208.822 156.852 210.639 148.357 212.248 139.815C212.251 139.768 212.238 139.722 212.211 139.684C212.183 139.646 212.144 139.619 212.098 139.607C212.053 139.595 212.005 139.599 211.963 139.619C211.92 139.638 211.886 139.672 211.866 139.714Z" fill="#263238"/>
<path d="M200.682 296.184C192.959 300.095 184.831 303.15 176.444 305.296L174.714 305.738C173.628 306.02 172.502 306.261 171.416 306.503C154.416 310.195 136.822 310.195 119.822 306.503C118.173 306.141 116.524 305.738 114.894 305.296C105.113 302.749 95.6922 298.977 86.8549 294.072C86.1509 293.71 85.467 293.328 84.8434 292.905C83.7573 292.282 82.6711 291.618 81.5648 290.894C77.0491 288.097 72.7219 285.006 68.6112 281.641C68.1083 281.279 67.6255 280.877 67.1428 280.455C63.0181 276.981 59.1276 273.238 55.4966 269.251L54.4104 268.064C52.3588 265.744 50.3942 263.351 48.5169 260.883C48.8387 259.556 49.1807 258.228 49.5025 256.86C49.6232 256.478 49.7037 256.076 49.8042 255.694C50.7496 252.033 51.8157 248.312 52.8214 244.47C52.9219 244.068 53.0627 243.686 53.1633 243.263C54.2093 239.622 55.3156 235.861 56.5425 232.1C56.6364 231.697 56.7571 231.295 56.9046 230.893C58.0913 227.212 59.3384 223.451 60.666 219.669C60.7867 219.307 60.9476 218.905 61.0884 218.502C62.4159 214.801 63.7837 211.06 65.2521 207.299C65.3929 206.937 65.5337 206.554 65.6946 206.172C67.1629 202.431 68.7318 198.73 70.3611 194.989C70.522 194.566 70.703 194.184 70.8841 193.782C72.5536 190.02 74.3035 186.299 76.1339 182.578C76.2948 182.216 76.4759 181.834 76.6569 181.492C78.5342 177.71 80.4987 173.976 82.5504 170.288C82.6322 170.108 82.7263 169.933 82.832 169.765L83.2343 169.061C85.3664 165.28 87.5991 161.539 89.9525 157.898C90.1939 157.496 90.4553 157.093 90.7168 156.691C93.1909 152.869 95.8058 149.128 98.5212 145.507C98.7127 145.208 98.9209 144.919 99.1447 144.642L99.4062 144.321C101.8 141.143 104.314 138.025 106.909 135.048C107.532 134.332 108.204 133.66 108.92 133.036L109.222 132.795C109.584 132.514 109.926 132.252 110.328 131.991C110.394 131.932 110.469 131.885 110.55 131.85C122.86 123.643 146.313 126.942 149.31 131.307C149.444 131.478 149.565 131.66 149.672 131.85L150.074 132.433C152.556 136.24 154.813 140.189 156.833 144.26C158.844 148.082 160.654 152.306 162.505 156.631C164.174 160.553 165.784 164.676 167.373 168.961C167.373 169.182 167.534 169.383 167.594 169.584C167.688 169.777 167.763 169.979 167.815 170.188C169.304 174.211 170.752 178.233 172.18 182.538C173.387 186.219 174.614 189.96 175.76 193.742C175.881 194.164 176.022 194.526 176.143 194.948C177.349 198.831 178.536 202.773 179.663 206.715C179.704 206.92 179.758 207.121 179.823 207.319C180.93 211.06 181.956 214.801 182.981 218.523C182.981 218.864 183.122 219.166 183.223 219.488C184.269 223.33 185.234 227.152 186.22 230.913L186.542 232.12C187.507 235.881 188.432 239.622 189.317 243.283C189.317 243.404 189.317 243.505 189.317 243.605C189.317 243.706 189.458 244.188 189.519 244.49C190.444 248.312 191.329 252.053 192.174 255.714C193.139 259.978 194.064 264.122 194.909 268.084C195.01 268.507 195.09 268.889 195.171 269.271C196.036 273.294 196.86 277.156 197.605 280.817C197.605 281.098 197.605 281.38 197.765 281.661C198.63 285.946 199.395 289.908 200.058 293.469C200.058 293.67 200.059 293.851 200.159 294.032L200.682 296.184Z" fill="#00ADB5"/>
<path opacity="0.1" d="M114.894 305.296C116.523 305.738 118.173 306.141 119.822 306.503H171.416C172.502 306.261 173.628 306.02 174.714 305.738L176.444 305.296H114.894ZM200.32 293.509C200.32 293.308 200.219 293.107 200.179 292.905H84.7629C85.4669 293.328 86.1508 293.71 86.7743 294.072H200.32C200.32 293.891 200.32 293.71 200.32 293.509ZM197.866 280.857C197.826 280.745 197.792 280.631 197.765 280.515H67.0623C67.545 280.937 68.0277 281.34 68.5306 281.702H197.926C197.866 281.42 197.806 281.139 197.765 280.857H197.866ZM195.171 268.125H54.3701L55.4563 269.311H195.372C195.251 268.929 195.171 268.627 195.07 268.125H195.171ZM46.8272 268.125C46.8084 268.329 46.7679 268.532 46.7065 268.728C46.7065 268.527 46.7065 268.326 46.8473 268.125H46.8272ZM192.274 255.754H49.7036C49.7036 256.136 49.5225 256.539 49.422 256.921H192.576L192.274 255.754ZM189.418 243.686C189.418 243.585 189.418 243.484 189.418 243.364H53.0828C52.9822 243.786 52.8414 244.168 52.7409 244.571H189.7C189.619 244.249 189.559 243.967 189.478 243.645L189.418 243.686ZM186.24 230.953H56.8442C56.6923 231.347 56.5647 231.75 56.462 232.16H186.622L186.24 230.953ZM183.243 219.528C183.142 219.206 183.082 218.905 183.001 218.563H61.028C60.8872 218.965 60.7262 219.367 60.5854 219.729H183.283C183.28 219.662 183.287 219.594 183.303 219.528H183.243ZM179.683 206.756L179.502 206.172H65.6744C65.5135 206.555 65.3727 206.937 65.2117 207.299H179.864C179.814 207.12 179.774 206.939 179.743 206.756H179.683ZM175.78 193.782H70.8639C70.6828 194.184 70.5018 194.566 70.3409 194.989H176.183C176.183 194.566 175.961 194.204 175.841 193.782H175.78ZM171.757 181.412H76.6769C76.4959 181.754 76.3149 182.136 76.154 182.498H172.301C172.125 182.145 171.971 181.782 171.838 181.412H171.757ZM167.594 169.604C167.594 169.403 167.453 169.202 167.373 168.981H83.2543L82.8721 169.685C82.7664 169.853 82.6723 170.027 82.5905 170.208H167.896C167.843 170 167.769 169.797 167.674 169.604H167.594ZM162.505 156.651H90.7167C90.4754 157.053 90.2139 157.455 89.9926 157.858H163.048C162.907 157.435 162.726 157.033 162.585 156.651H162.505ZM156.813 144.24H99.4464L99.1849 144.562C98.961 144.838 98.7529 145.127 98.5614 145.427H157.456C157.255 145.025 157.074 144.622 156.893 144.24H156.813ZM150.054 132.413L149.652 131.83H110.59C110.509 131.865 110.434 131.912 110.368 131.97C109.966 132.232 109.624 132.493 109.262 132.775L108.96 133.016H150.517C150.373 132.826 150.245 132.624 150.135 132.413H150.054Z" fill="black"/>
<path d="M147.037 163.57C137.543 165.28 122.216 150.093 116.463 138.146C116.081 137.341 117.751 129.014 119.279 118.796C120.205 112.6 121.069 105.661 121.411 99.2846L160.896 111.132C158.187 118.983 156.451 127.137 155.727 135.41C155.701 136.291 155.748 137.172 155.867 138.045C155.879 138.186 155.879 138.327 155.867 138.467C156.451 143.496 156.209 161.901 147.037 163.57Z" fill="#FFBE9D"/>
<path d="M155.928 138.467C155.928 138.749 155.928 139.051 155.928 139.393C131.931 134.324 124.529 122.175 120.285 110.991C120.768 107.069 121.17 103.086 121.351 99.2846L160.836 111.112C158.129 118.969 156.399 127.13 155.686 135.41C155.641 136.291 155.688 137.174 155.827 138.045C155.843 138.189 155.877 138.331 155.928 138.467V138.467Z" fill="#263238"/>
<path d="M112.36 53.6049C107.955 67.7855 115.276 108.859 125.354 117.971C139.937 131.287 163.913 132.654 175.257 115.115C186.26 98.0978 175.76 44.7144 164.516 36.387C148.023 24.1374 118.857 32.6457 112.36 53.6049Z" fill="#FFBE9D"/>
<path d="M146.011 79.5524C146.011 79.5524 145.81 79.7335 145.83 79.834C146.393 82.5897 146.594 85.8683 144.241 87.1959C144.241 87.1959 144.241 87.3769 144.241 87.3367C147.359 86.2907 147.057 81.9662 146.011 79.5524Z" fill="#263238"/>
<path d="M143.115 76.9979C138.589 77.4203 139.796 86.4114 143.98 86.0091C148.164 85.6068 146.896 76.6358 143.115 76.9979Z" fill="#263238"/>
<path d="M163.31 76.8973C163.31 76.7766 163.551 76.8973 163.571 77.0985C163.853 79.8944 164.637 83.1328 167.292 83.6557C167.292 83.6557 167.292 83.8167 167.292 83.7966C164.114 83.7764 163.129 79.5524 163.31 76.8973Z" fill="#263238"/>
<path d="M165.422 73.6589C169.847 72.7136 171.456 81.7047 167.292 82.5092C163.129 83.3138 161.7 74.4434 165.422 73.6589Z" fill="#263238"/>
<path d="M139.012 73.3572C140.148 72.8547 141.256 72.2907 142.33 71.6676C143.582 71.2336 144.657 70.3995 145.388 69.2941C145.534 68.9025 145.554 68.4751 145.446 68.0713C145.338 67.6676 145.107 67.3076 144.784 67.0413C144.041 66.6286 143.201 66.4239 142.351 66.4486C141.502 66.4734 140.675 66.7268 139.957 67.1821C138.37 67.8739 137.095 69.1275 136.377 70.7021C136.215 71.0716 136.168 71.4811 136.242 71.8776C136.316 72.274 136.508 72.639 136.792 72.9252C137.076 73.2115 137.439 73.4057 137.835 73.4828C138.231 73.5598 138.641 73.516 139.012 73.3572V73.3572Z" fill="#263238"/>
<path d="M168.298 68.6505C167.057 68.5749 165.821 68.4271 164.597 68.2079C163.271 68.2441 161.972 67.8253 160.916 67.0212C160.643 66.702 160.477 66.3053 160.441 65.8869C160.405 65.4684 160.501 65.0492 160.715 64.6879C161.271 64.051 161.989 63.575 162.792 63.3096C163.595 63.0443 164.454 62.9993 165.281 63.1794C167.005 63.2614 168.639 63.9777 169.867 65.1908C170.169 65.4787 170.374 65.8536 170.454 66.2635C170.534 66.6733 170.484 67.0977 170.312 67.478C170.139 67.8582 169.853 68.1753 169.492 68.3854C169.131 68.5955 168.714 68.6882 168.298 68.6505Z" fill="#263238"/>
<path d="M150.758 96.2071C151.61 97.2138 152.661 98.0336 153.845 98.6151C155.029 99.1966 156.32 99.5273 157.637 99.5864C158.793 99.6569 159.952 99.5552 161.077 99.2846C161.296 99.2524 161.512 99.1984 161.721 99.1237L162.304 98.9427C162.447 98.8954 162.571 98.8034 162.658 98.6803C162.745 98.5572 162.79 98.4094 162.787 98.2588V98.2588C162.8 98.1654 162.8 98.0706 162.787 97.9772V97.7358C162.545 95.5836 161.902 92.3653 161.902 92.3653C162.746 92.6469 166.97 93.9141 166.769 92.8078C164.979 83.5954 162.988 73.3773 159.267 64.6477C159.245 64.5844 159.2 64.5317 159.141 64.5005C159.082 64.4693 159.013 64.462 158.949 64.48C158.884 64.498 158.829 64.5401 158.795 64.5974C158.76 64.6548 158.749 64.7232 158.764 64.7885C160.132 73.6992 163.068 82.3081 164.577 91.2389C163.072 90.7677 161.507 90.5104 159.93 90.4745C159.629 90.5952 161.278 96.71 161.298 97.6755C161.311 97.7078 161.311 97.7437 161.298 97.776C157.758 98.7214 154.902 97.9973 151.08 96.0462C150.738 95.7847 150.557 96.006 150.758 96.2071Z" fill="#263238"/>
<path d="M159.387 98.4801C158.475 100.029 157.18 101.317 155.626 102.221C154.763 102.681 153.778 102.857 152.81 102.724C150.678 102.443 150.396 100.572 150.577 98.9024C150.693 98.0245 150.902 97.1614 151.201 96.3278C153.627 97.9072 156.498 98.6619 159.387 98.4801V98.4801Z" fill="#263238"/>
<path d="M155.626 102.221C154.763 102.681 153.778 102.857 152.81 102.724C150.678 102.443 150.396 100.572 150.577 98.9024C151.669 98.8097 152.76 99.0865 153.676 99.6884C154.591 100.29 155.278 101.182 155.626 102.221V102.221Z" fill="#FF9CBD"/>
<path opacity="0.2" d="M112.44 81.765C115.015 80.2363 119.38 71.0642 121.311 67.3028C123.242 63.5414 121.733 46.062 121.13 40.8926C117.033 44.2541 113.989 48.7227 112.36 53.7658C110.469 59.6593 110.731 70.6619 112.44 81.765Z" fill="#263238"/>
<path d="M156.209 51.1107C154.951 53.0464 153.218 54.628 151.176 55.7053C149.134 56.7826 146.851 57.3198 144.543 57.2657C142.193 57.2115 139.896 56.5586 137.868 55.369C135.841 54.1793 134.15 52.4922 132.957 50.4671C132.957 50.3464 132.696 50.4671 132.756 50.4671C133.823 52.7084 135.48 54.6171 137.55 55.9884C139.619 57.3597 142.023 58.142 144.503 58.2513C146.958 58.2416 149.367 57.5836 151.486 56.3439C153.605 55.1041 155.36 53.3266 156.571 51.1912C156.591 51.1107 156.33 50.9297 156.209 51.1107Z" fill="#263238"/>
<path d="M137.966 19.8128C130.201 20.9995 123.624 26.2293 121.472 31.8814C120.269 35.1156 120.205 38.6632 121.291 41.9386C121.291 42.0794 121.613 41.9386 121.572 41.9386C121.028 39.0023 121.285 35.9737 122.314 33.1707C123.344 30.3676 125.11 27.8935 127.426 26.008C129.94 23.8224 132.928 22.2521 136.154 21.4212C139.379 20.5903 142.754 20.5217 146.011 21.2208C149.185 21.8398 152.036 23.5647 154.057 26.0885C154.238 26.35 154.801 26.0885 154.64 25.827C151.865 21.2208 145.026 18.7467 137.966 19.8128Z" fill="#263238"/>
<path d="M185.355 30.7952C183.578 27.1259 180.565 24.1992 176.846 22.5282C171.697 20.195 166.367 21.3415 161.077 22.5282C161.055 22.5376 161.037 22.5531 161.024 22.5727C161.011 22.5924 161.004 22.6154 161.004 22.6389C161.004 22.6624 161.011 22.6853 161.024 22.705C161.037 22.7246 161.055 22.7401 161.077 22.7495C165.562 21.7237 170.189 20.9191 174.654 22.5282C178.351 23.8265 181.485 26.3635 183.524 29.7091C185.507 33.1638 186.177 37.2173 185.412 41.1262C184.647 45.0351 182.499 48.5371 179.361 50.99C177.521 52.3581 175.421 53.335 173.19 53.8608C170.959 54.3867 168.644 54.4501 166.387 54.0474C166.206 54.0474 166.126 54.2687 166.387 54.3089C170.46 55.1579 174.703 54.4925 178.321 52.4374C181.938 50.3824 184.682 47.0787 186.039 43.1454C187.339 39.0849 187.095 34.6874 185.355 30.7952V30.7952Z" fill="#263238"/>
<path d="M111.012 61.9121C111.012 61.9121 101.88 48.9183 106.989 40.0881C109.926 35.0997 121.613 34.2348 121.613 34.2348C124.128 29.2329 128.527 25.4346 133.842 23.6747C143.296 20.2352 155.545 24.4592 155.545 24.4592C155.545 24.4592 164.114 18.0226 173.367 21.8846C186.28 27.2551 187.085 45.8005 175.7 53.2227C167.654 58.4324 155.183 52.3578 155.183 52.3578C154.097 52.6394 143.557 60.9265 133.681 51.855C133.681 51.855 127.466 58.9553 120.627 55.375C119.879 57.3127 118.558 58.9764 116.84 60.1443C115.122 61.3122 113.089 61.9289 111.012 61.9121V61.9121Z" fill="#263238"/>
<path d="M121.649 34.7334L121.649 34.7334L121.648 34.7335L121.643 34.7339L121.619 34.7358C121.598 34.7375 121.566 34.7401 121.524 34.7438C121.44 34.7512 121.316 34.7627 121.156 34.7791C120.836 34.8119 120.374 34.8645 119.81 34.9431C118.681 35.1004 117.147 35.3613 115.526 35.7752C113.902 36.1899 112.206 36.7542 110.743 37.5129C109.276 38.2743 108.088 39.2084 107.421 40.3402C104.986 44.5502 105.921 49.8151 107.553 54.1347C108.363 56.2793 109.332 58.155 110.099 59.4955C110.482 60.1651 110.815 60.6998 111.05 61.066C111.141 61.2064 111.217 61.3219 111.276 61.4108C113.161 61.3756 114.997 60.7929 116.559 59.7308C118.193 58.6201 119.449 57.0378 120.16 55.1949L120.362 54.6721L120.859 54.932C124.072 56.6144 127.148 55.8035 129.477 54.5197C130.641 53.8785 131.601 53.1269 132.272 52.5339C132.607 52.2379 132.867 51.983 133.043 51.8032C133.131 51.7134 133.198 51.6424 133.242 51.5947C133.264 51.5709 133.281 51.5528 133.291 51.5411L133.302 51.5284L133.305 51.5258L133.305 51.5256L133.305 51.5254L133.305 51.5254L133.642 51.1403L134.019 51.4867C138.809 55.8859 143.73 56.0707 147.61 55.128C149.56 54.6543 151.249 53.8944 152.523 53.2303C153.125 52.9169 153.632 52.6262 154.034 52.3957L154.104 52.3554C154.308 52.2383 154.489 52.1351 154.637 52.0566C154.77 51.9859 154.925 51.9084 155.058 51.8738L155.236 51.8275L155.402 51.9083L155.402 51.9083L155.402 51.9083L155.404 51.9089L155.409 51.9117L155.434 51.9235C155.456 51.9342 155.49 51.9502 155.536 51.9711C155.626 52.0129 155.76 52.0741 155.935 52.1505C156.285 52.3034 156.796 52.517 157.434 52.7577C158.712 53.2394 160.497 53.8275 162.527 54.2546C166.612 55.1139 171.575 55.298 175.428 52.803C180.948 49.2035 183.529 42.8965 183.146 36.8157C182.764 30.7391 179.428 24.947 173.175 22.3462L173.174 22.346C168.698 20.4776 164.376 21.0945 161.148 22.1968C159.535 22.7475 158.204 23.4166 157.277 23.9477C156.814 24.213 156.453 24.4432 156.209 24.606C156.087 24.6874 155.995 24.7519 155.934 24.7954C155.903 24.8172 155.88 24.8337 155.865 24.8445L155.849 24.8562L155.846 24.8588L155.846 24.859L121.649 34.7334ZM121.649 34.7334L121.649 34.7334L121.932 34.7125L122.059 34.4594C124.515 29.576 128.81 25.8676 133.999 24.1494L134.006 24.1471L134.013 24.1446C138.625 22.4667 143.953 22.6504 148.166 23.2718C150.266 23.5815 152.074 23.9978 153.356 24.3364C153.997 24.5056 154.506 24.6553 154.854 24.7623C155.027 24.8158 155.161 24.8586 155.25 24.8878C155.295 24.9025 155.329 24.9137 155.351 24.9211L155.375 24.9295L155.381 24.9314L155.382 24.9319L155.382 24.9319L155.383 24.9319L155.633 25.0184L155.846 24.8592L121.649 34.7334Z" stroke="black" stroke-opacity="0.5"/>
<path d="M120.989 87.0752C120.989 87.0752 111.495 73.9606 105.521 77.36C99.5471 80.7593 106.849 99.8881 113.949 102.402C114.839 102.79 115.798 102.993 116.769 102.999C117.74 103.005 118.702 102.814 119.597 102.438C120.491 102.062 121.301 101.509 121.976 100.811C122.651 100.114 123.177 99.2863 123.523 98.3795L120.989 87.0752Z" fill="#FFBE9D"/>
<path d="M107.794 82.7908C107.767 82.7908 107.742 82.8015 107.723 82.8203C107.704 82.8392 107.693 82.8648 107.693 82.8914C107.693 82.9181 107.704 82.9437 107.723 82.9625C107.742 82.9814 107.767 82.992 107.794 82.992C112.782 85.0034 115.478 89.4688 117.368 94.1957C117.067 93.699 116.661 93.2736 116.18 92.9487C115.698 92.6237 115.152 92.4069 114.578 92.3133C114.005 92.2196 113.418 92.2513 112.858 92.4061C112.298 92.5609 111.778 92.8352 111.334 93.2101C111.314 93.2347 111.302 93.2648 111.299 93.2964C111.296 93.328 111.302 93.3598 111.317 93.3877C111.333 93.4157 111.356 93.4386 111.384 93.4535C111.412 93.4684 111.443 93.4747 111.475 93.4716C112.341 93.1787 113.277 93.1627 114.153 93.4258C115.029 93.6889 115.801 94.2181 116.363 94.9399C117.293 96.1544 118.096 97.4621 118.756 98.8421C118.998 99.2846 119.782 99.0231 119.621 98.5203C119.613 98.4805 119.613 98.4393 119.621 98.3996C119.601 92.0837 114.552 83.3138 107.794 82.7908Z" fill="#263238"/>
<path d="M90.6163 142.832C47.632 182.799 -7.94401 268.366 0.946537 286.59C10.8428 306.885 70.7031 250.826 70.6227 247.407C70.6227 244.812 93.0502 197.624 110.007 159.487C126.963 121.35 101.237 132.956 90.6163 142.832Z" fill="#FFBE9D"/>
<path d="M0.94652 286.59C9.63592 300.247 34.7588 303.868 97.1535 318.893C105.783 320.905 136.879 264.001 127.768 261.306C116.302 257.906 71.045 247.226 67.6457 246.844C38.9023 243.766 -4.9671 277.317 0.94652 286.59Z" fill="#FFBE9D"/>
<path d="M107.05 259.053C107.05 259.053 132.374 258.751 145.73 262.734C163.611 268.044 176.867 279.992 182.116 285.322C193.079 296.486 211.886 331.022 202.874 338.163C194.829 344.64 177.309 308.353 177.309 308.353C177.309 308.353 201.165 342.427 189.921 348.401C178.677 354.375 160.835 311.129 160.835 311.129C160.835 311.129 184.59 346.671 172.019 351.016C162.505 354.294 144.141 316.017 144.141 316.017C144.141 316.017 164.355 346.711 154.721 350.493C144.08 354.697 124.911 320.422 124.911 320.422C98.7625 325.953 84.1394 317.908 74.3638 310.948C72.0104 309.258 107.05 259.053 107.05 259.053Z" fill="#FFBE9D"/>
<path d="M169.806 296.063C172.743 299.945 175.841 303.888 178.355 308.132C180.869 312.376 183.384 316.52 185.596 320.884C188.561 326.548 190.882 332.526 192.516 338.706C188.835 327.945 179.783 312.959 177.188 308.796C174.594 304.632 172.22 300.388 169.646 296.244C169.565 296.043 169.726 295.963 169.806 296.063Z" fill="#263238"/>
<path d="M154.64 305.135C158.201 310.284 161.922 315.192 165.241 320.563C168.559 325.933 171.275 331.123 174.151 336.654C174.393 337.077 174.151 337.056 173.829 336.654C170.692 331.284 167.353 326.597 164.134 321.226C160.916 315.856 157.919 310.445 154.52 305.256C154.459 305.135 154.6 305.075 154.64 305.135Z" fill="#263238"/>
<path d="M140.238 310.606C145.877 318.365 150.703 326.682 154.64 335.427C154.841 335.85 154.459 335.789 154.218 335.427C149.591 326.959 146.011 320.442 139.977 310.868C139.977 310.666 140.118 310.445 140.238 310.606Z" fill="#263238"/>
<path d="M32.164 255.493C43.4421 248.101 57.0423 245.109 70.3813 247.085C70.5422 247.085 70.5422 247.387 70.3813 247.366C56.5627 246.381 37.5949 252.817 32.164 255.734C32.1238 255.815 32.0232 255.593 32.164 255.493Z" fill="#263238"/>
<path d="M28.9255 198.971L82.3493 229.505C82.3493 229.505 104.475 187.164 112.983 159.547C121.492 131.93 113.929 119.319 82.0275 147.137C63.2918 163.322 45.5583 180.632 28.9255 198.971V198.971Z" fill="#455A64"/>
<path d="M85.1855 218.16C78.0516 213.253 70.797 208.559 63.4218 204.08C59.7811 201.848 56.1605 199.555 52.4796 197.382C48.7986 195.21 44.7355 193.158 40.9339 190.926C40.6724 190.765 40.3908 191.147 40.6523 191.328C44.2327 193.621 47.6722 196.176 51.2526 198.489C54.8329 200.802 58.715 203.135 62.4563 205.448C69.8584 210.021 77.361 214.399 84.9642 218.583C85.1855 218.603 85.4068 218.342 85.1855 218.16Z" fill="#263238"/>
<path d="M80.0966 228.218C80.9012 228.58 81.6857 228.922 82.4701 229.304L82.1282 229.404C83.6368 225.502 85.3465 221.721 86.9959 217.899C88.6452 214.077 90.4958 210.376 92.3463 206.655C94.1968 202.934 96.0674 199.233 98.099 195.592C100.131 191.951 102.122 188.311 104.355 184.771C102.926 188.693 101.297 192.515 99.6075 196.316C97.9179 200.118 96.168 203.879 94.3577 207.641C92.5474 211.402 90.6567 215.063 88.7056 218.744C86.7545 222.425 84.6827 226.065 82.6713 229.626L82.5305 229.847L82.3293 229.726C81.5046 229.243 80.8006 228.721 80.0966 228.218Z" fill="#263238"/>
<path d="M105.4 192.193C103.159 195.823 100.074 198.859 96.4093 201.043C97.5227 199.215 98.8756 197.544 100.432 196.075C101.914 194.572 103.584 193.267 105.4 192.193Z" fill="#263238"/>
</svg>
